<svg fill="none" height="60" viewBox="0 0 60 60" width="60" xmlns="http://www.w3.org/2000/svg"><path d="m30 60c16.5685 0 30-13.4315 30-30s-13.4315-30-30-30-30 13.4315-30 30 13.4315 30 30 30z" fill="#ff9301"/><path d="m38.4 33.6c-1.2 1.2-2 2.3-2.4 3.3s-1.2 1.5-2.4 1.5-2.4-.5-3.6-1.5-2.4-2.1-3.6-3.3-2.3-2.4-3.3-3.6-1.5-2.4-1.5-3.6.5-2 1.5-2.4 2.1-1.2 3.3-2.4c.6-.6.675-1.4375.225-2.5125s-1.125-2.1375-2.025-3.1875-1.875-1.9625-2.925-2.7375-1.875-1.1625-2.475-1.1625-1.3125.375-2.1375 1.125-1.6125 1.575-2.3625 2.475-1.3875 1.725-1.9125 2.475-.7875 1.125-.7875 1.125c0 1.2.275 2.65.825 4.35.575 1.725 1.3125 3.5 2.2125 5.325.925 1.8 1.95 3.5375 3.075 5.2125 1.15 1.7 2.3125 3.1375 3.4875 4.3125s2.6125 2.3375 4.3125 3.4875c1.675 1.125 3.4125 2.15 5.2125 3.075 1.825.9 3.6 1.6375 5.325 2.2125 1.7.55 3.15.825 4.35.825 0 0 .375-.2625 1.125-.7875s1.575-1.1625 2.475-1.9125 1.725-1.5375 2.475-2.3625 1.125-1.5375 1.125-2.1375-.3875-1.425-1.1625-2.475-1.6875-2.025-2.7375-2.925-2.1125-1.575-3.1875-2.025-1.9125-.375-2.5125.225z" fill="#fff"/></svg>