<svg fill="none" height="40" viewBox="0 0 40 40" width="40" xmlns="http://www.w3.org/2000/svg"><path d="m17.3333 4c-8.09998 0-14.66664 5.96933-14.66664 13.3333 0 3.7822 1.74417 7.1837 4.52864 9.6068-.39939 1.308-1.23251 2.6088-2.76302 3.7682-.00086.0009-.00173.0018-.0026.0026-.12624.048-.23492.1333-.31165.2444s-.11789.243-.11804.378c0 .1768.07024.3464.19526.4714.12503.1251.2946.1953.47141.1953.04555-.0006.09093-.0058.13541-.0156 2.58676-.0076 4.79384-1.1125 6.54953-2.4974.8331.3389 1.7027.6182 2.6093.8125-.4053-1.1467-.6276-2.3675-.6276-3.6328 0-6.6174 5.9814-12 13.3334-12 1.8426 0 3.5992.3385 5.1979.9505-.928-6.55201-7.0726-11.6172-14.5313-11.6172zm9.3334 13.3333c-2.829 0-5.5421.9834-7.5425 2.7337s-3.1242 4.1243-3.1242 6.5997c0 2.4753 1.1238 4.8493 3.1242 6.5996 2.0004 1.7504 4.7135 2.7337 7.5425 2.7337 1.3638-.0019 2.7146-.2326 3.9791-.6797 1.6352 1.1423 3.614 1.9895 5.8802 1.9974.0462.0102.0934.0154.1407.0156.1768 0 .3463-.0702.4714-.1952.125-.1251.1952-.2946.1952-.4714-.0002-.1365-.0423-.2695-.1205-.3813s-.1889-.1968-.317-.2437c-1.2202-.9265-2.0023-1.9462-2.4713-2.9844 1.8641-1.7285 2.9044-4.0141 2.9088-6.3906 0-2.4754-1.1238-4.8494-3.1242-6.5997s-4.7135-2.7337-7.5424-2.7337z" fill="currentColor"/></svg>