<svg fill="none" height="60" viewBox="0 0 60 60" width="60" xmlns="http://www.w3.org/2000/svg"><path d="m30 60c16.5685 0 30-13.4315 30-30s-13.4315-30-30-30-30 13.4315-30 30 13.4315 30 30 30z" fill="#0a7cff"/><path clip-rule="evenodd" d="m30 10c11.2666 0 20 8.2528 20 19.4s-8.7334 19.4-20 19.4c-2.0237 0-3.9652-.2673-5.7894-.7689-.3546-.0976-.7317-.0699-1.0682.0787l-3.9697 1.7523c-1.0384.4584-2.2106-.2802-2.2454-1.4147l-.1089-3.558c-.0134-.4381-.2106-.848-.5373-1.1402-3.8915-3.4801-6.2811-8.5185-6.2811-14.3492 0-11.1472 8.7334-19.4 20-19.4zm-12.0099 25.0734c-.5638.8945.5357 1.9025 1.378 1.2633l6.3107-4.7894c.4269-.324 1.0168-.3257 1.4455-.0042l4.6728 3.5046c1.4021 1.0517 3.4033.6824 4.3379-.8003l5.875-9.3209c.5637-.8945-.5358-1.9025-1.3781-1.2633l-6.3107 4.7894c-.4269.324-1.0168.3257-1.4455.0041l-4.6727-3.5045c-1.4022-1.0516-3.4034-.6824-4.3379.8004z" fill="#fff" fill-rule="evenodd"/></svg>