<svg fill="none" height="60" viewBox="0 0 60 60" width="60" xmlns="http://www.w3.org/2000/svg"><path d="m30 60c16.5685 0 30-13.4315 30-30s-13.4315-30-30-30-30 13.4315-30 30 13.4315 30 30 30z" fill="#0a7cff"/><path d="m50 30.0001c0-11.0458-8.9542-20.0001-19.9999-20.0001-11.0458 0-20.0001 8.9543-20.0001 20.0001 0 9.9826 7.3137 18.2566 16.875 19.757v-13.9757h-5.0781v-5.7813h5.0781v-4.4063c0-5.0125 2.9859-7.7813 7.5543-7.7813 2.1881 0 4.477.3906 4.477.3906v4.9219h-2.5219c-2.4845 0-3.2594 1.5417-3.2594 3.1234v3.7517h5.5469l-.8867 5.7813h-4.6602v13.9757c9.5614-1.5004 16.875-9.7744 16.875-19.757z" fill="#fff"/></svg>