<svg fill="none" height="60" viewBox="0 0 60 60" width="60" xmlns="http://www.w3.org/2000/svg"><path d="m30 60c16.5685 0 30-13.4315 30-30s-13.4315-30-30-30-30 13.4315-30 30 13.4315 30 30 30z" fill="#00b833"/><path d="m50 28.25c0-2.2396-.5208-4.349-1.5625-6.3281-1.0677-1.9792-2.513-3.6979-4.3359-5.1563-1.7969-1.4844-3.9063-2.6432-6.3282-3.4765-2.4218-.8594-5.013-1.2891-7.7734-1.2891s-5.3516.4297-7.7734 1.2891c-2.4219.8333-4.5443 1.9921-6.3672 3.4765-1.7969 1.4584-3.2292 3.1771-4.2969 5.1563-1.0417 1.9791-1.5625 4.0885-1.5625 6.3281 0 1.9792.4167 3.8802 1.25 5.7031.8594 1.7969 2.0312 3.4115 3.5156 4.8438 1.4844 1.4062 3.2422 2.5911 5.2735 3.5547 2.0573.9635 4.2838 1.6015 6.6797 1.914.3124.0782.651.1823 1.0156.3125.3906.1302.651.3386.7812.625.0782.2604.1042.5729.0782.9375 0 .3386-.0261.6511-.0782.9375 0 0-.039.2474-.1172.7422-.0781.4688-.1172.7682-.1172.8985-.026.2604-.013.625.0391 1.0937s.612.4687 1.6797 0c.5208-.2083 1.4323-.7031 2.7344-1.4844 1.3281-.7812 2.7734-1.7187 4.3359-2.8125 1.5625-1.0937 3.125-2.2786 4.6875-3.5547 1.5625-1.276 2.8776-2.513 3.9453-3.7109 1.4323-1.5885 2.5-3.2031 3.2031-4.8438.7292-1.6406 1.0938-3.3593 1.0938-5.1562zm-27.8125 5.3125h-3.9844c-.2604 0-.5078-.0911-.7422-.2734-.2343-.2084-.3515-.4558-.3515-.7422v-7.9688c0-.3125.1041-.5729.3125-.7812.2343-.2084.4948-.3125.7812-.3125.2604 0 .4948.1041.7031.3125.2084.2083.3126.4687.3126.7812v6.875h2.9687c.2604 0 .4948.1042.7031.3125.2084.2084.3125.4688.3125.7813 0 .2604-.1041.4948-.3125.7031-.1823.2083-.4166.3125-.7031.3125zm4.0625-1.0156c0 .2604-.1042.4948-.3125.7031-.1823.2083-.4167.3125-.7031.3125-.2604 0-.4948-.0911-.7032-.2734-.2083-.2084-.3124-.4558-.3124-.7422v-7.9688c0-.3125.0911-.5729.2734-.7812.2083-.2084.4557-.3125.7422-.3125.2604 0 .4948.1041.7031.3125.2083.2083.3125.4687.3125.7812zm9.6094 0c0 .1823-.0651.3646-.1953.5469-.1302.1822-.2995.3124-.5079.3906-.0781.026-.1432.0521-.1953.0781-.052 0-.1171 0-.1953 0-.1562 0-.3125-.026-.4687-.0781-.1302-.0782-.2344-.1823-.3125-.3125l-4.0625-5.5469v4.9219c0 .2604-.1042.4948-.3125.7031-.2084.2083-.4688.3125-.7813.3125-.2604 0-.4948-.0911-.7031-.2734-.2083-.2084-.3125-.4558-.3125-.7422v-7.9688c0-.2343.0521-.4427.1563-.625.1302-.1823.3124-.3125.5468-.3906.0261 0 .0651-.013.1172-.0391.0781-.026.1432-.039.1953-.039.1563 0 .2995.039.4297.1172.1563.0781.2995.1953.4297.3515l4.0625 5.5469v-4.9219c0-.3125.0911-.5729.2734-.7812.2084-.2084.4558-.3125.7422-.3125.3125 0 .5729.1041.7813.3125.2083.2083.3125.4687.3125.7812zm6.4062-5.0781c.3125 0 .5729.1041.7813.3124.2083.2084.3125.4688.3125.7813 0 .2604-.1042.4948-.3125.7031-.2084.2084-.4688.3125-.7813.3125h-2.8906v1.875h2.8906c.3125 0 .5729.1042.7813.3125.2083.2084.3125.4688.3125.7813 0 .2604-.1042.4948-.3125.7031-.2084.2083-.4688.3125-.7813.3125h-3.9844c-.2604 0-.4947-.0911-.7031-.2734-.2083-.2084-.3125-.4558-.3125-.7422v-3.9844-3.9844c0-.3125.0912-.5729.2735-.7812.2083-.2084.4557-.3125.7421-.3125h3.9844c.3125 0 .5729.1041.7813.3125.2083.2083.3125.4687.3125.7812 0 .2604-.1042.4948-.3125.7031-.2084.2084-.4688.3126-.7813.3126h-2.8906v1.875z" fill="#fff"/></svg>