<svg width="60" height="60" viewBox="0 0 60 60" fill="none" xmlns="http://www.w3.org/2000/svg">
<g clip-path="url(#clip0_1104_284)">
<path d="M30 60C46.5685 60 60 46.5685 60 30C60 13.4315 46.5685 0 30 0C13.4315 0 0 13.4315 0 30C0 46.5685 13.4315 60 30 60Z" fill="black"/>
<path d="M33.4492 27.5429L44.9897 14H42.2549L32.2344 25.7591L24.231 14H15L27.1027 31.7818L15 45.9836H17.7349L28.3169 33.5656L36.769 45.9836H46L33.4485 27.5429H33.4492ZM29.7034 31.9385L28.4772 30.1678L18.7203 16.0784H22.9209L30.7948 27.449L32.0211 29.2197L42.2562 43.9997H38.0556L29.7034 31.9391V31.9385Z" fill="white"/>
</g>
<defs>
<clipPath id="clip0_1104_284">
<rect width="60" height="60" fill="white"/>
</clipPath>
</defs>
</svg>
