<svg fill="none" height="60" viewBox="0 0 60 60" width="60" xmlns="http://www.w3.org/2000/svg"><path d="m30 60c16.5685 0 30-13.4315 30-30s-13.4315-30-30-30-30 13.4315-30 30 13.4315 30 30 30z" fill="#ff9301"/><path d="m28.6667 14c-.3536 0-.6928.1405-.9428.3906-.25.25-.3905.5891-.3906.9427v4c-1.4733 0-2.6666 1.1934-2.6666 2.6667v20c0 1.4733 1.1933 2.6667 2.6666 2.6667h16c1.4734 0 2.6667-1.1934 2.6667-2.6667v-20c0-1.4733-1.1933-2.6667-2.6667-2.6667v-4c0-.3536-.1405-.6927-.3905-.9427-.2501-.2501-.5892-.3906-.9428-.3906zm-8.0209 1.3151c-.3531.0055-.6897.1509-.9357.4043-.2461.2534-.3816.5941-.3768.9473v2.6666h-4c-1.4733 0-2.6666 1.1934-2.6666 2.6667v20c0 1.4733 1.1933 2.6667 2.6666 2.6667h4c1.4734 0 2.6667-1.1934 2.6667-2.6667v-20-5.3333c.0024-.1784-.0309-.3555-.0982-.5207-.0672-.1653-.1669-.3154-.2931-.4414-.1263-.126-.2766-.2254-.442-.2923s-.3425-.1-.5209-.0972zm9.3542 1.3516h10.6667v2.6666 1.3334 2.6666h-10.6667v-2.6666-1.3334zm0 10.6666c.736 0 1.3333.5974 1.3333 1.3334s-.5973 1.3333-1.3333 1.3333-1.3333-.5973-1.3333-1.3333.5973-1.3334 1.3333-1.3334zm5.3333 0c.736 0 1.3334.5974 1.3334 1.3334s-.5974 1.3333-1.3334 1.3333-1.3333-.5973-1.3333-1.3333.5973-1.3334 1.3333-1.3334zm5.3334 0c.736 0 1.3333.5974 1.3333 1.3334s-.5973 1.3333-1.3333 1.3333-1.3334-.5973-1.3334-1.3333.5974-1.3334 1.3334-1.3334zm-10.6667 5.3334c.736 0 1.3333.5973 1.3333 1.3333s-.5973 1.3333-1.3333 1.3333-1.3333-.5973-1.3333-1.3333.5973-1.3333 1.3333-1.3333zm5.3333 0c.736 0 1.3334.5973 1.3334 1.3333s-.5974 1.3333-1.3334 1.3333-1.3333-.5973-1.3333-1.3333.5973-1.3333 1.3333-1.3333zm5.3334 0c.736 0 1.3333.5973 1.3333 1.3333s-.5973 1.3333-1.3333 1.3333-1.3334-.5973-1.3334-1.3333.5974-1.3333 1.3334-1.3333zm-10.6667 5.3333c.736 0 1.3333.5973 1.3333 1.3333s-.5973 1.3334-1.3333 1.3334-1.3333-.5974-1.3333-1.3334.5973-1.3333 1.3333-1.3333zm5.3333 0c.736 0 1.3334.5973 1.3334 1.3333s-.5974 1.3334-1.3334 1.3334-1.3333-.5974-1.3333-1.3334.5973-1.3333 1.3333-1.3333zm5.3334 0c.736 0 1.3333.5973 1.3333 1.3333s-.5973 1.3334-1.3333 1.3334-1.3334-.5974-1.3334-1.3334.5974-1.3333 1.3334-1.3333z" fill="#fff"/></svg>