<svg fill="none" height="60" viewBox="0 0 60 60" width="60" xmlns="http://www.w3.org/2000/svg"><path d="m30 60c16.5685 0 30-13.4315 30-30s-13.4315-30-30-30-30 13.4315-30 30 13.4315 30 30 30z" fill="#3f51b5"/><path d="m18.3333 16.6667c-2.6166 0-4.767 2.0167-4.9837 4.5833l16.6504 8.9909 16.6504-8.9909c-.2167-2.5666-2.3671-4.5833-4.9837-4.5833zm-5 7.4088v14.2579c0 2.7583 2.2417 5 5 5h23.3334c2.7583 0 5-2.2417 5-5v-14.2579l-16.0743 8.6914c-.1833.1-.3841.1498-.5924.1498s-.4091-.0498-.5925-.1498z" fill="#fff"/></svg>