<svg fill="none" height="40" viewBox="0 0 40 40" width="40" xmlns="http://www.w3.org/2000/svg"><path d="m8.75001 5.83331c-2.97661 0-5.41667 2.44005-5.41667 5.41669v14.1666c0 2.9767 2.44006 5.4167 5.41667 5.4167h1.24999v4.5833c0 1.6384 2.0228 2.6492 3.3333 1.6667l8.3334-6.25h9.5833c2.9766 0 5.4167-2.44 5.4167-5.4167v-14.1666c0-2.97664-2.4401-5.41669-5.4167-5.41669zm0 2.5h22.49999c1.6251 0 2.9167 1.29162 2.9167 2.91669v14.1666c0 1.6251-1.2916 2.9167-2.9167 2.9167h-10c-.2706.0001-.5339.0881-.7503.2507l-7.9997 5.9993v-5c0-.3315-.1317-.6494-.3661-.8838-.2345-.2344-.5524-.3662-.8839-.3662h-2.49999c-1.62505 0-2.91667-1.2916-2.91667-2.9167v-14.1666c0-1.62507 1.29162-2.91669 2.91667-2.91669zm4.16669 5.83169c-.1657-.0023-.3301.0283-.4838.09-.1537.0618-.2936.1535-.4116.2698s-.2116.2549-.2756.4077c-.0639.1529-.0968.3169-.0968.4825 0 .1657.0329.3297.0968.4825.064.1528.1576.2914.2756.4077s.2579.208.4116.2698.3181.0924.4838.09h14.1666c.1657.0024.3301-.0282.4839-.09.1537-.0618.2936-.1535.4115-.2698.118-.1163.2117-.2549.2756-.4077s.0968-.3168.0968-.4825c0-.1656-.0329-.3296-.0968-.4825-.0639-.1528-.1576-.2914-.2756-.4077-.1179-.1163-.2578-.208-.4115-.2698-.1538-.0617-.3182-.0923-.4839-.09zm0 5.8334c-.1657-.0024-.3301.0282-.4838.09-.1537.0617-.2936.1534-.4116.2698-.118.1163-.2116.2548-.2756.4077-.0639.1528-.0968.3168-.0968.4825 0 .1656.0329.3296.0968.4824.064.1529.1576.2914.2756.4078.118.1163.2579.208.4116.2697.1537.0618.3181.0924.4838.0901h10.8333c.1657.0023.3301-.0283.4838-.0901.1537-.0617.2936-.1534.4116-.2697.118-.1164.2116-.2549.2756-.4078.0639-.1528.0968-.3168.0968-.4824 0-.1657-.0329-.3297-.0968-.4825-.064-.1529-.1576-.2914-.2756-.4077-.118-.1164-.2579-.2081-.4116-.2698-.1537-.0618-.3181-.0924-.4838-.09z" fill="currentColor"/></svg>