<svg xmlns="http://www.w3.org/2000/svg" width="24" height="24" fill="currentColor" viewBox="0 0 48 48"><path d="M25.12 44.521c-2.114 1.162-2.024-.549-1.933-1.076.054-.314.3-1.787.3-1.787.07-.534.144-1.36-.067-1.887-.235-.58-1.166-.882-1.85-1.029C11.48 37.415 4.011 30.4 4.011 22.025c0-9.342 9.42-16.943 20.995-16.943S46 12.683 46 22.025c0 10.492-11.128 17.134-20.88 22.496zm-6.751-18.676a1.02 1.02 0 0 0-1.023-1.015H14.49v-6.678a1.02 1.02 0 0 0-1.023-1.015 1.02 1.02 0 0 0-1.023 1.015v7.694a1.02 1.02 0 0 0 1.023 1.016h3.879a1.02 1.02 0 0 0 1.023-1.017zm2.988-7.693a1.02 1.02 0 0 0-1.023-1.015 1.02 1.02 0 0 0-1.023 1.015v7.694a1.02 1.02 0 0 0 1.023 1.016 1.02 1.02 0 0 0 1.023-1.016v-7.694zm9.34 0a1.02 1.02 0 0 0-1.023-1.015c-.565 0-1.025.455-1.025 1.015v4.761l-3.978-5.369a1.032 1.032 0 0 0-1.143-.354c-.419.139-.7.526-.7.963v7.694c0 .561.46 1.016 1.025 1.016.566 0 1.025-.456 1.025-1.016v-4.759l3.976 5.369a1.03 1.03 0 0 0 1.143.353c.42-.137.7-.524.7-.963v-7.695zm6.278 2.832h-2.856v-1.817h2.856A1.02 1.02 0 0 0 38 18.152c0-.56-.46-1.015-1.025-1.015h-3.879a1.02 1.02 0 0 0-1.023 1.015v7.692c0 .561.46 1.016 1.023 1.016h3.879c.565 0 1.025-.456 1.025-1.016s-.46-1.015-1.025-1.015h-2.856v-1.817h2.856A1.02 1.02 0 0 0 38 21.997c0-.561-.46-1.016-1.025-1.016v.003z"/></svg>