<svg xmlns="http://www.w3.org/2000/svg" width="24" height="24" fill="currentColor" viewBox="0 0 48 48"><path d="M36.5 6h-25A5.507 5.507 0 0 0 6 11.5v25c0 3.032 2.468 5.5 5.5 5.5h25c3.032 0 5.5-2.468 5.5-5.5v-25C42 8.468 39.532 6 36.5 6zM18 34a1 1 0 0 1-1 1h-3a1 1 0 0 1-1-1V21a1 1 0 0 1 1-1h3a1 1 0 0 1 1 1v13zm-2.5-16a2.5 2.5 0 1 1 0-5 2.5 2.5 0 0 1 0 5zM35 34a1 1 0 0 1-1 1h-3a1 1 0 0 1-1-1v-7.5c0-1.379-1.121-2.5-2.5-2.5S25 25.121 25 26.5V34a1 1 0 0 1-1 1h-3a1 1 0 0 1-1-1V21a1 1 0 0 1 1-1h3a1 1 0 0 1 1 1v.541A5.965 5.965 0 0 1 29 20c3.309 0 6 2.691 6 6v8z"/></svg>