<svg xmlns="http://www.w3.org/2000/svg" width="24" height="24" fill="none" viewBox="0 0 24 24"><path fill="currentColor" d="M22 10.953h-6.093l5.277-3.046-1.047-1.814L14.86 9.14l3.046-5.277-1.813-1.046-3.046 5.275V2h-2.094v6.093L7.907 2.817 6.093 3.863 9.14 9.14 3.863 6.093 2.816 7.907l5.277 3.046H2v2.094h6.092l-5.276 3.047 1.047 1.813 5.277-3.046-3.047 5.276 1.813 1.047 3.047-5.276V22h2.094v-6.223l3.102 5.374 1.7-.982-3.103-5.374 5.39 3.112 1.047-1.814-5.276-3.046H22v-2.094Zm-10 3.894a2.848 2.848 0 1 1 0-5.695 2.848 2.848 0 0 1 0 5.695Z"/></svg>