<svg xmlns="http://www.w3.org/2000/svg" width="24" height="24" fill="currentColor" viewBox="0 0 48 48"><path d="M24 5C12.95 5 4 13.47 4 23.92 4 29.55 6.88 34.53 11 38l.14 4.52c-.04 1.85 1.97 3.03 3.57 2.1l3.83-2.51c1.74.47 3.56.73 5.46.73 11.05 0 20-8.47 20-18.92S35.05 5 24 5zm10.7 14.71-.02.02-6.27 8.32a2.344 2.344 0 0 1-3.28.46l-.14-.11-.24-.21-3.45-3.04-6.62 4.58c-.46.32-1.09.2-1.4-.25-.26-.37-.24-.85.02-1.19l.02-.02 6.27-8.32a2.344 2.344 0 0 1 3.28-.46l.14.11.24.21 3.45 3.04 6.62-4.58c.46-.32 1.09-.2 1.4.25.26.37.24.85-.02 1.19z"/></svg>