<svg xmlns="http://www.w3.org/2000/svg" width="24" height="24" fill="currentColor" viewBox="0 0 48 48"><path d="M24 4C12.972 4 4 12.972 4 24c0 8.648 5.527 16.01 13.227 18.794-.08-1.216-.227-3.574-.227-4.377 0-2.001.229-2.602.229-2.602l2.267-9.429A9.812 9.812 0 0 1 19 23.281c0-1.891 1.219-3.781 3-3.781 1.322 0 2.5 1 2.5 2.953 0 .579-.08 1.259-.281 2.054l-.764 3.023c-.229.865-.406 2.529.338 3.506.424.555 1.164.89 2.207.964 4.122 0 6-4.406 6-8.5 0-8.262-7.182-8.5-8-8.5-4.963 0-9 3.701-9 8.25 0 1.935.6 3.36 1.316 4.385.143.205.2.456.141.699l-.559 2.324c-.078.325-.484.458-.725.227C13.151 28.942 12 26.23 12 23.25 12 17.047 17.383 12 24 12c6.841 0 12 4.837 12 11.25C36 29.729 31.738 35 26.5 35c-1.941 0-3.461-.523-4.542-1.544l-1.03 4.076c-.519 1.89-1.152 3.619-2.803 5.584 1.859.573 3.831.884 5.875.884 11.028 0 20-8.972 20-20S35.028 4 24 4z"/></svg>