<svg fill="none" height="40" viewBox="0 0 40 40" width="40" xmlns="http://www.w3.org/2000/svg"><path d="m8.33334 11.7949c0-1.5319.47793-3.08583 1.42316-4.66183.9452-1.57599 2.3365-2.87646 4.1526-3.91243s3.9403-1.55395 6.3724-1.55395c2.2515 0 4.2482.42981 5.9687 1.30047 1.7311.85963 3.0587 2.03887 4.0039 3.5267.9453 1.48783 1.4126 3.09688 1.4126 4.83824 0 1.3776-.2655 2.5789-.8072 3.6038-.5416 1.036-1.1789 1.9287-1.9117 2.6781-.7434.7494-2.0604 2.0168-3.9827 3.7912-.531.4959-.9558.9368-1.2744 1.3225-.3187.3747-.5523.7274-.7116 1.036-.1593.3196-.2762.6282-.3611.9478-.085.3196-.2124.8706-.3824 1.6641-.2973 1.6752-1.2213 2.5238-2.7719 2.5238-.8072 0-1.4869-.2755-2.0392-.8265-.5522-.5511-.8284-1.3666-.8284-2.4467 0-1.3556.2018-2.5348.6054-3.5267s.9452-1.8625 1.6143-2.612c.6691-.7494 1.5719-1.6421 2.7083-2.678.9983-.9038 1.7099-1.5871 2.1559-2.0499.4461-.4629.8178-.9699 1.1152-1.543.308-.562.4567-1.1792.4567-1.8405 0-1.2894-.4673-2.38049-1.3913-3.27318-.924-.8927-2.1241-1.33354-3.5791-1.33354-1.71 0-2.9738.45186-3.781 1.34456-.8071.89269-1.4975 2.21516-2.0497 3.95656-.5311 1.8294-1.5294 2.7331-3.0056 2.7331-.8709 0-1.60374-.3196-2.20911-.9588-.59475-.6171-.90275-1.3004-.90275-2.0499zm11.39586 26.5385c-.9452 0-1.7736-.3197-2.4852-.9589s-1.0621-1.5319-1.0621-2.6781c0-1.0139.3399-1.8735 1.0302-2.5678.6797-.6944 1.5294-1.036 2.5171-1.036.9771 0 1.8055.3527 2.4746 1.036.6691.6943.9983 1.5539.9983 2.5678 0 1.1352-.3505 2.0169-1.0514 2.6671-.701.6502-1.5081.9699-2.4215.9699z" fill="currentColor"/></svg>