<svg fill="none" height="40" viewBox="0 0 40 40" width="40" xmlns="http://www.w3.org/2000/svg"><path d="m6.66668 5c-1.83334 0-3.33334 1.5-3.33334 3.33333v17.98827c0 .7417.89753 1.1142 1.42253.5892l3.57747-3.5775h14.99996c1.8334 0 3.3334-1.5 3.3334-3.3333v-11.66667c0-1.83333-1.5-3.33333-3.3334-3.33333zm23.33332 8.3333v6.6667c0 3.6817-2.985 6.6667-6.6667 6.6667h-10v1.6666c0 1.8334 1.5 3.3334 3.3334 3.3334h15l3.5775 3.5774c.525.525 1.4225.1525 1.4225-.5892v-17.9882c0-1.8334-1.5-3.3334-3.3334-3.3334z" fill="currentColor"/></svg>