<svg xmlns="http://www.w3.org/2000/svg" width="24" height="24" fill="currentColor" viewBox="0 0 48 48"><path d="M11.5 6C8.48 6 6 8.48 6 11.5v25c0 3.02 2.48 5.5 5.5 5.5h25c3.02 0 5.5-2.48 5.5-5.5v-25C42 8.48 39.52 6 36.5 6h-25zm16 5c.83 0 1.5.67 1.5 1.5 0 3.03 2.47 5.5 5.5 5.5.83 0 1.5.67 1.5 1.5s-.67 1.5-1.5 1.5c-2.1 0-4.02-.76-5.5-2.02V29c0 4.41-3.59 8-8 8s-8-3.59-8-8 3.59-8 8-8c.21 0 .42.01.62.02.83.07 1.45.79 1.38 1.61a1.5 1.5 0 0 1-1.61 1.39c-.13-.01-.26-.02-.39-.02-2.76 0-5 2.24-5 5s2.24 5 5 5 5-2.24 5-5V12.5c0-.83.67-1.5 1.5-1.5z"/></svg>