<svg xmlns="http://www.w3.org/2000/svg" width="24" height="24" fill="currentColor" viewBox="0 0 48 48"><path d="M44.719 10.305a.998.998 0 0 0-1.136-.214l-.164.075-.418.191c.407-.649.73-1.343.953-2.061a.999.999 0 0 0-1.474-1.151c-1.141.693-2.237 1.192-3.37 1.54A9.463 9.463 0 0 0 32.5 6a9.5 9.5 0 0 0-9.5 9.5v.5l-.999-.08C12.278 14.77 9.51 8.23 9.395 7.948a1.5 1.5 0 0 0-2.456-.509C6.741 7.638 5 9.48 5 13c0 2.508 1.118 4.542 2.565 6.124a9.094 9.094 0 0 1-1.077-.753 1.504 1.504 0 0 0-1.669-.208 1.503 1.503 0 0 0-.813 1.473c.019.211.445 4.213 5.068 7.235l-.843.153A1.5 1.5 0 0 0 7.3 29.4c.105.141 2.058 2.68 6.299 4.14A28.848 28.848 0 0 1 4.5 35a1.5 1.5 0 0 0-1.129 2.487C3.532 37.672 7.435 42 17.5 42 34.213 42 42 26.485 42 16v-.5c0-.148-.016-.293-.022-.439 2.092-2.022 2.879-3.539 2.917-3.614a1 1 0 0 0-.176-1.142z"/></svg>