<svg xmlns="http://www.w3.org/2000/svg" width="24" height="24" fill="currentColor" viewBox="0 0 48 48"><path d="M23.857 8.5c-6.352 0-12.255.453-15.623 1.156a1.5 1.5 0 0 0-.021.006c-2.538.569-4.927 2.386-5.43 5.233a1.5 1.5 0 0 0-.002.011C2.395 17.2 2 20.191 2 24.5c0 4.301.396 7.212.885 9.627.515 2.762 2.85 4.635 5.426 5.21a1.5 1.5 0 0 0 .037.01c3.515.693 9.25 1.153 15.603 1.153s12.092-.46 15.608-1.152a1.5 1.5 0 0 0 .037-.01c2.537-.569 4.926-2.386 5.43-5.233a1.5 1.5 0 0 0 .003-.021c.38-2.34.874-5.328.971-9.645a1.5 1.5 0 0 0 0-.033c0-4.318-.494-7.327-.977-9.71-.51-2.769-2.848-4.647-5.427-5.223a1.5 1.5 0 0 0-.12-.022c-3.43-.482-9.265-.951-15.619-.951zm-3.7 8.502c.37-.008.753.08 1.113.283l8.603 4.861a2.124 2.124 0 0 1 0 3.71l-8.603 4.86c-1.44.813-3.233-.216-3.233-1.855V19.14c0-1.23 1.008-2.114 2.12-2.137z"/></svg>