<svg width="64" height="32" viewBox="0 0 64 32" fill="none" xmlns="http://www.w3.org/2000/svg">
<path d="M14.1143 9.63953C14.1143 7.07719 16.3017 5 19 5C21.6983 5 23.8857 7.07719 23.8857 9.63953C23.8857 12.2019 21.6983 14.2791 19 14.2791C16.3017 14.2791 14.1143 12.2019 14.1143 9.63953Z" fill="#50575E"/>
<path d="M15.5674 16.7209C12.4926 16.7209 10 19.2136 10 22.2884V22.2884C10 24.3382 11.6618 26 13.7116 26H24.2884C26.3382 26 28 24.3382 28 22.2884V22.2884C28 19.2136 25.5074 16.7209 22.4326 16.7209H15.5674Z" fill="#50575E"/>
<path d="M37 20H46.6M37 12H53" stroke="#50575E" stroke-width="2.5" stroke-linecap="round" stroke-linejoin="round"/>
</svg>
