<svg width="64" height="32" viewBox="0 0 64 32" fill="none" xmlns="http://www.w3.org/2000/svg">
<path d="M40.1143 9.63953C40.1143 7.07719 42.3017 5 45 5C47.6983 5 49.8857 7.07719 49.8857 9.63953C49.8857 12.2019 47.6983 14.2791 45 14.2791C42.3017 14.2791 40.1143 12.2019 40.1143 9.63953Z" fill="#50575E"/>
<path d="M41.5674 16.7209C38.4926 16.7209 36 19.2136 36 22.2884V22.2884C36 24.3382 37.6618 26 39.7116 26H50.2884C52.3382 26 54 24.3382 54 22.2884V22.2884C54 19.2136 51.5074 16.7209 48.4326 16.7209H41.5674Z" fill="#50575E"/>
<path d="M12 20H21.6M12 12H28" stroke="#50575E" stroke-width="2.5" stroke-linecap="round" stroke-linejoin="round"/>
</svg>
